<?xml version="1.0" encoding="utf-8"?>
<!-- Generator: Adobe Illustrator 27.7.0, SVG Export Plug-In . SVG Version: 6.00 Build 0)  -->
<svg version="1.1" id="Layer_2_00000147929745534174766780000002730809490303401407_"
	 xmlns="http://www.w3.org/2000/svg" xmlns:xlink="http://www.w3.org/1999/xlink" x="0px" y="0px" viewBox="0 0 1487.7 614.2"
	 style="enable-background:new 0 0 1487.7 614.2;" xml:space="preserve">
<style type="text/css">
	.st0{fill:#231F20;}
	.st1{fill:url(#SVGID_1_);}
	.st2{fill-rule:evenodd;clip-rule:evenodd;fill:#EE2524;}
	.st3{clip-path:url(#SVGID_00000058548113351998574980000005053119897821510289_);}
	.st4{fill:#D2D2D2;}
	.st5{fill:#D32627;}
	.st6{fill:#F9F9FA;}
	.st7{fill:#515151;}
	.st8{fill-rule:evenodd;clip-rule:evenodd;}
	.st9{clip-path:url(#SVGID_00000083054856487483077100000012164309508234457472_);}
</style>
<g id="Layer_1-2">
	<g>
		<path class="st0" d="M153.9,278.3H52.7v68.5h118.7v42.3H0V133.4h171.1v42.7H52.7V237h101.2V278.3L153.9,278.3z"/>
		<path class="st0" d="M170.5,289.2c0-29.6,6.6-53.2,19.9-70.8c13.3-17.6,31.5-26.3,54.5-26.3c18.5,0,33.8,6.9,45.8,20.7v-96.9h50.9
			v269.8h-45.8l-2.5-20.2c-12.6,15.8-28.9,23.7-48.8,23.7c-22.4,0-40.3-8.8-53.8-26.4C177.2,345.1,170.5,320.6,170.5,289.2z
			 M221.2,293c0,17.8,3.1,31.5,9.3,41c6.2,9.5,15.2,14.2,27,14.2c15.7,0,26.8-6.6,33.2-19.9v-75.1c-6.3-13.2-17.3-19.9-32.8-19.9
			C233.5,233.3,221.2,253.2,221.2,293L221.2,293z"/>
		<path class="st0" d="M477.6,366.3c-12.5,15.2-29.9,22.8-52,22.8c-20.4,0-35.9-5.9-46.6-17.6c-10.7-11.7-16.2-28.9-16.4-51.5V195.6
			h50.8v122.9c0,19.8,9,29.7,27,29.7s29-6,35.5-17.9V195.6h50.9v190H479L477.6,366.3L477.6,366.3z"/>
		<path class="st0" d="M626.8,348.2c9.4,0,17-2.6,22.8-7.7c5.8-5.1,8.9-12,9.1-20.5h47.6c-0.1,12.9-3.6,24.7-10.5,35.4
			s-16.4,19-28.4,24.9s-25.3,8.9-39.8,8.9c-27.2,0-48.6-8.6-64.3-25.9c-15.7-17.3-23.5-41.1-23.5-71.6v-3.3
			c0-29.3,7.8-52.6,23.4-70.1c15.6-17.4,36.9-26.2,64.1-26.2c23.8,0,42.8,6.8,57.2,20.3c14.3,13.5,21.6,31.5,21.9,54h-47.6
			c-0.2-9.9-3.3-17.9-9.1-24.1c-5.9-6.2-13.6-9.3-23.2-9.3c-11.8,0-20.8,4.3-26.8,12.9c-6,8.6-9,22.6-9,42v5.3c0,19.6,3,33.7,9,42.2
			C605.6,343.9,614.6,348.2,626.8,348.2L626.8,348.2z"/>
		<path class="st0" d="M828.2,385.6c-2.3-4.6-4-10.2-5.1-17c-12.3,13.7-28.3,20.5-47.9,20.5c-18.6,0-34-5.4-46.3-16.2
			c-12.2-10.8-18.3-24.4-18.3-40.8c0-20.1,7.5-35.6,22.4-46.4c14.9-10.8,36.5-16.2,64.7-16.3H821v-10.9c0-8.8-2.3-15.8-6.8-21.1
			c-4.5-5.3-11.6-7.9-21.3-7.9c-8.5,0-15.2,2.1-20.1,6.1c-4.9,4.1-7.3,9.7-7.3,16.9h-50.8c0-11,3.4-21.2,10.2-30.6
			c6.8-9.4,16.4-16.7,28.8-22c12.4-5.3,26.3-8,41.8-8c23.4,0,42,5.9,55.8,17.6c13.8,11.8,20.6,28.3,20.6,49.6v82.4
			c0.1,18,2.6,31.7,7.5,40.9v3L828.2,385.6L828.2,385.6z M786.2,350.3c7.5,0,14.4-1.7,20.7-5c6.3-3.3,11-7.8,14-13.4v-32.7h-19
			c-25.4,0-38.9,8.8-40.6,26.3l-0.2,3c0,6.3,2.2,11.5,6.7,15.6S778.5,350.3,786.2,350.3L786.2,350.3z"/>
		<path class="st0" d="M954.4,148.9v46.7h32.5v37.2h-32.5v94.8c0,7,1.3,12.1,4,15.1c2.7,3,7.8,4.6,15.5,4.6c5.6,0,10.6-0.4,14.9-1.2
			v38.5c-10,3-20.2,4.6-30.7,4.6c-35.6,0-53.7-18-54.4-53.9V232.8h-27.8v-37.2h27.8v-46.7H954.4L954.4,148.9z"/>
		<path class="st0" d="M1130.7,288.8c0-18.9,3.6-35.6,10.9-50.4s17.7-26.2,31.3-34.2s29.5-12.1,47.5-12.1c25.6,0,46.6,7.9,62.8,23.5
			c16.2,15.7,25.3,37,27.1,63.9l0.3,13c0,29.1-8.1,52.5-24.4,70.2c-16.3,17.6-38.1,26.4-65.5,26.4s-49.3-8.8-65.6-26.3
			c-16.3-17.6-24.5-41.5-24.5-71.6V288.8L1130.7,288.8z M1181.4,292.4c0,18.1,3.4,31.9,10.2,41.4c6.8,9.6,16.5,14.3,29.2,14.3
			s21.9-4.7,28.8-14.2s10.4-24.5,10.4-45.3c0-17.7-3.5-31.4-10.4-41.2c-6.9-9.7-16.6-14.6-29.2-14.6s-22,4.8-28.8,14.5
			C1184.8,257.1,1181.4,272.1,1181.4,292.4L1181.4,292.4z"/>
		<path class="st0" d="M1371.4,199.1l1.6,21.9c13.6-17,31.8-25.5,54.6-25.5c20.1,0,35.1,5.9,45,17.7s14.9,29.5,15.1,53v122.8h-50.8
			V267.6c0-10.8-2.3-18.6-7-23.4c-4.7-4.9-12.5-7.3-23.4-7.3c-14.3,0-25,6.1-32.1,18.3v134h-50.8v-190L1371.4,199.1L1371.4,199.1z"
			/>
		<g>
			
				<linearGradient id="SVGID_1_" gradientUnits="userSpaceOnUse" x1="1017.74" y1="168.4198" x2="1104.89" y2="168.4198" gradientTransform="matrix(1 0 0 -1 0 389.8898)">
				<stop  offset="0" style="stop-color:#EE2524"/>
				<stop  offset="1" style="stop-color:#C43633"/>
			</linearGradient>
			<path class="st1" d="M1021.8,90.2c0-10.6,3.5-19.3,10.6-26.1c7.1-6.8,16.7-10.2,28.9-10.2s21.6,3.4,28.8,10.2
				s10.7,15.5,10.7,26.1s-3.6,19.5-10.8,26.3c-7.2,6.8-16.8,10.2-28.7,10.2s-21.4-3.4-28.7-10.2
				C1025.4,109.7,1021.8,100.9,1021.8,90.2L1021.8,90.2z M1104.9,389.1h-87.2V159.2c0-12,9.7-21.8,21.8-21.8h43.6
				c12,0,21.8,9.7,21.8,21.8L1104.9,389.1L1104.9,389.1z"/>
			<g>
				<path class="st2" d="M1055.8,47.6l-5.7-45.8l-55.9,36.7l28.4,9.8l1.2,16.6C1029.6,55.3,1043.9,49.1,1055.8,47.6
					C1055.8,47.6,1055.8,47.6,1055.8,47.6z"/>
				<path class="st2" d="M1055.8,47.6l-2-5.3l0.7-5.5c11.7-1.5,23.2-0.2,33.7,3.2l-0.1,0l1.3,14.5
					C1079.1,50.3,1067.7,46.1,1055.8,47.6L1055.8,47.6L1055.8,47.6z M1054.2,34.9l-4.7-16.5l0.6-16.7l63.2,21.8l-21.4,14
					c-10.6-3.5-22.1-4.7-33.9-3.2C1056.7,34.5,1055.5,34.7,1054.2,34.9L1054.2,34.9L1054.2,34.9z"/>
			</g>
			<g>
				<defs>
					<path id="SVGID_00000016038096948575141910000001778966338461425599_" d="M1104.9,389.1h-87.2V159.2c0-12,9.7-21.8,21.8-21.8
						h43.6c12,0,21.8,9.7,21.8,21.8L1104.9,389.1L1104.9,389.1z"/>
				</defs>
				<clipPath id="SVGID_00000023242526423797994810000015033421665680842663_">
					<use xlink:href="#SVGID_00000016038096948575141910000001778966338461425599_"  style="overflow:visible;"/>
				</clipPath>
				<g style="clip-path:url(#SVGID_00000023242526423797994810000015033421665680842663_);">
					<g>
						<polygon class="st4" points="1056.7,203.4 1061.3,213.7 1078.7,145 1042.1,145 						"/>
						<g>
							<path class="st5" d="M1065.4,152.4c-0.2,0.3-0.9,0.6-1.6,0.6h-4.9c-0.7,0-1.4-0.2-1.6-0.6l-2.8-5.4c-0.5-1.1,0.2-2,1.7-2
								h10.2c1.5,0,2.3,1,1.7,2L1065.4,152.4L1065.4,152.4z"/>
							<polygon class="st5" points="1069.1,203.4 1061.4,216.4 1053.5,204.6 1054.5,190.7 1057.3,152.3 1065.4,152.3 1068.3,192 
															"/>
						</g>
						<polygon class="st6" points="1077.7,135.7 1073.4,155.2 1061.2,144.8 						"/>
						<polygon class="st6" points="1044.9,135.7 1049.2,155.2 1061.4,144.8 						"/>
						<polygon class="st7" points="1077.7,135.7 1087.3,141 1090.5,159 1083,163.8 1089.1,167.1 1061.3,222.6 1061.3,210 						"/>
						<polygon class="st7" points="1044.9,135.7 1035.3,141 1032.1,159 1039.6,163.8 1033.5,167.1 1061.3,222.6 1061.3,210 						
							"/>
					</g>
				</g>
			</g>
		</g>
		<g>
			<path class="st8" d="M158.6,9.2H91.3l-6.9,25.1h3.1C97.7,17.8,101.3,13,110.6,13h7.1L104,77.8c-1.4,6.4-3.3,7.1-12.2,8.1
				l-0.7,3.4h34.5l0.8-3.4c-8-0.8-10.4-1.4-9-8.1L130.8,13h8.4c9.2,0,7.3,4.8,10.2,21.2h3.1L158.6,9.2L158.6,9.2L158.6,9.2z"/>
			<path class="st8" d="M198.8,82.1c-1,0-1.6-0.6-1.6-1.7c0.2-1.7,0.5-3.3,1-4.9l8.8-33.3c0.4-1.7,0.6-3.5,0.7-5.2
				c0-5.3-2-8.4-7.6-8.4c-10.8,0-23.4,15.3-30,28.2L184.1,0h-1.7l-19.7,4.6l-0.4,1.8l7.2,3.5l-19.4,79.5h12.2l4-16.3
				c4.9-20.3,20.5-36.5,26.9-36.5c1.4,0,2,0.8,2,2.4c-0.1,1.2-0.2,2.5-0.6,3.7l-8.1,29.5c-1,3.2-1.5,6.4-1.6,9.7
				c-0.5,4.1,2.5,7.9,6.6,8.4c0.4,0,0.7,0.1,1.1,0.1c6.1,0,10.8-4.9,17.9-15.3l-1.9-1.5c-4.8,6.1-7.8,8.4-9.9,8.4L198.8,82.1
				L198.8,82.1L198.8,82.1z"/>
			<path class="st8" d="M243.8,32.2c3.9,0,5.5,3.1,5.5,6.6c0,11.2-8.1,17.5-24.3,21.4C227,46.4,234.8,32.3,243.8,32.2L243.8,32.2
				L243.8,32.2z M259.8,40c0-6.3-4.4-11.5-14.1-11.5c-18.4,0-33.6,21-33.6,41c0,12.7,7,21.1,18.5,21.1c9.9,0,17.6-5.7,24.7-16.4
				l-2.1-1.7c-5.4,7.2-10.6,10.9-17,10.9c-7.3,0-11.7-5.8-11.7-16.1c0-1.4,0-2.9,0.2-4.2C242.6,59.2,259.8,54.4,259.8,40L259.8,40z"
				/>
			<path class="st8" d="M304.2,20.8c1.4-6.4,2.8-7.1,11.1-8.1l0.8-3.5h-32.3l-0.7,3.5c7.3,0.9,9.2,1.4,7.8,8.1l-12,57
				c-1.2,6.4-2.8,7.1-11.1,8.1l-0.8,3.4h32.3l0.8-3.4c-7.4-0.9-9.2-1.4-7.9-8.1L304.2,20.8L304.2,20.8L304.2,20.8z"/>
			<path class="st8" d="M354,82.1c-1,0-1.6-0.6-1.6-1.7c0.2-1.7,0.5-3.3,1-4.9l8.8-33.3c0.4-1.7,0.6-3.5,0.7-5.2
				c0-5.3-2-8.4-7.6-8.4c-10.8,0-23.4,15.3-30.1,28.2l7.5-28.2H331l-19.6,4.9l-0.3,1.7l6.6,3.8l-12.5,50.6h12.2l4-16.3
				c5-20.2,20.5-36.4,26.9-36.4c1.4,0,2,0.8,2,2.4c-0.1,1.2-0.3,2.5-0.7,3.6l-8,29.7c-1,3.2-1.5,6.4-1.6,9.7
				c-0.5,4.1,2.5,7.9,6.6,8.4c0.4,0.1,0.8,0.1,1.2,0.1c6.1,0,10.8-4.9,17.9-15.3l-1.9-1.5c-4.8,6.1-7.8,8.4-9.9,8.4L354,82.1
				L354,82.1L354,82.1z"/>
			<path class="st8" d="M384.9,81.7c-3.7,0-5-4-5-9.7c0-17.8,11.1-40.1,24.3-40.1c3.6,0,6.9,2.2,8.2,5.6
				C405.8,64.5,393.1,81.7,384.9,81.7L384.9,81.7L384.9,81.7z M415.7,82.1c-1,0-1.6-0.6-1.6-1.7c0.2-1.7,0.5-3.3,1-4.9L433.5,0h-1.6
				l-19.8,4.6l-0.3,1.8L419,10l-5.5,22.3c-2.8-2.7-6.6-4.1-10.5-3.8c-17.7,0-35.7,21.6-35.7,45c0,10.5,4.5,17,12.2,17
				c9.2,0,20.3-13.5,27-28c-2.2,6.4-3.7,12.9-4.5,19.6c0,5.1,2.6,8.4,7.5,8.4c6.1,0,10.8-4.9,17.9-15.3l-1.9-1.5
				C420.7,79.8,417.8,82.1,415.7,82.1L415.7,82.1L415.7,82.1z"/>
			<path class="st8" d="M473.5,81.7c-3.5,0-5.1-3.6-5.1-9c0-19.2,11.1-40.7,23.7-40.7c3.6,0,6.8,2.2,8,5.6
				C493.3,64.7,481.8,81.7,473.5,81.7L473.5,81.7L473.5,81.7z M513.1,73.6c-5,6.1-7.9,8.4-9.9,8.4c-1,0-1.6-0.6-1.6-1.7
				c0.2-1.7,0.5-3.3,0.9-4.9l8.3-34.5l4.1-13.5h-2.7l-9.2,5.6c-3-3.2-7.4-5-11.8-4.8c-17.6,0-35.1,21.6-35.1,45
				c0,10.5,4.4,17,12.2,17c9.2,0,18.7-12.2,25.4-26.7c-2.1,5.9-3.5,12.1-4.2,18.4c0,5.1,2.7,8.4,7.6,8.4c6.1,0,10.8-4.9,17.9-15.3
				l-1.9-1.5L513.1,73.6L513.1,73.6L513.1,73.6z"/>
			<path class="st8" d="M563.8,82.1c-1,0-1.6-0.6-1.6-1.7c0.2-1.7,0.5-3.3,1-4.9l8.8-33.3c0.4-1.7,0.6-3.5,0.7-5.2
				c0-5.3-2-8.4-7.7-8.4c-10.8,0-23.4,15.3-30.1,28.2l7.5-28.2h-1.7l-19.6,4.9l-0.3,1.7l6.6,3.8l-12.5,50.6h12.2l4-16.3
				c5-20.2,20.5-36.4,26.9-36.4c1.5,0,2,0.8,2,2.4c-0.1,1.2-0.3,2.5-0.7,3.6l-8,29.7c-1,3.2-1.5,6.4-1.6,9.7
				c-0.5,4.1,2.4,7.9,6.5,8.4c0.4,0.1,0.8,0.1,1.2,0.1c6.1,0,10.8-4.9,17.9-15.3l-1.9-1.5c-4.8,6.1-7.7,8.4-9.9,8.4L563.8,82.1
				L563.8,82.1L563.8,82.1z"/>
			<path class="st8" d="M451.1,20.1c4.5,0,8.1-3.7,8.1-8.2c0-4-3.2-7.3-7.2-7.3c-0.1,0-0.2,0-0.3,0c-4.4-0.1-8.1,3.5-8.1,8
				c0,0.1,0,0.2,0,0.3c0,4,3.2,7.3,7.3,7.3C450.8,20.1,450.9,20.1,451.1,20.1L451.1,20.1L451.1,20.1z"/>
			<path class="st8" d="M442.8,82.1c-1,0-1.6-0.6-1.6-1.7c0.2-1.7,0.5-3.3,1-4.9l11.6-47h-1.7l-19.5,4.9l-0.5,1.7l6.6,3.8l-8.3,33.7
				c-0.9,3.2-1.4,6.4-1.5,9.7c-0.5,4.1,2.3,7.8,6.4,8.4c0.4,0.1,0.8,0.1,1.2,0.1c6.1,0,10.8-4.9,17.9-15.3l-1.9-1.5
				c-4.9,6.1-7.7,8.4-9.9,8.4L442.8,82.1L442.8,82.1L442.8,82.1z"/>
			<path class="st2" d="M71.7,38.6L40.2,10.2c-4.2-3.6-1.4-9.6-1.4-9.6L38.1,0l-6.6,8.3c-3.7,4.6-3.1,11.4,1.4,15.3L64.4,52
				c4.1,3.6,1.4,9.6,1.4,9.6l0.6,0.6l6.6-8.3C76.8,49.3,76.2,42.6,71.7,38.6L71.7,38.6C71.7,38.6,71.7,38.6,71.7,38.6z"/>
			<g>
				<defs>
					<rect id="SVGID_00000060726969637904933460000010872997464016418225_" width="988.8" height="98.6"/>
				</defs>
				<clipPath id="SVGID_00000137132691713485876730000003859369854558460334_">
					<use xlink:href="#SVGID_00000060726969637904933460000010872997464016418225_"  style="overflow:visible;"/>
				</clipPath>
				<g style="clip-path:url(#SVGID_00000137132691713485876730000003859369854558460334_);">
					<path class="st2" d="M57.2,56.9L25.6,28.4c-4.2-3.6-1.4-9.6-1.4-9.6l-0.7-0.5l-6.6,8.1c-3.7,4.6-3.1,11.4,1.4,15.3l31.6,28.6
						C54,74,51.3,80,51.3,80l0.6,0.6l6.6-8.3c3.7-4.7,3.1-11.4-1.4-15.3V56.9C57.2,56.9,57.2,56.9,57.2,56.9z"/>
					<path class="st2" d="M42.6,75.1L11,46.6C6.9,43,9.6,37,9.6,37l-0.5-0.6l-6.8,8.3C-1.3,49.3-0.7,56,3.8,60l31.6,28.5
						c4.1,3.6,1.4,9.6,1.4,9.6l0.6,0.6l6.6-8.3C47.7,85.7,47.1,79,42.6,75.1L42.6,75.1L42.6,75.1L42.6,75.1z"/>
				</g>
			</g>
			<path class="st8" d="M961.3,90.7c17.3,0,27.5-9.7,27.5-24.5c0-16.6-10-21.8-24.8-26c-9.5-2.8-12-5.1-12-10.6
				c-0.3-4,2.7-7.5,6.7-7.8c0.5,0,1,0,1.6,0c5.5,0,8.9,2.6,9.3,9.5h17.5C986.3,15.3,976.6,8,960.4,8s-26.3,9.2-26.3,22.9
				c0,14.7,7.5,20.8,23.6,25.6c9.2,2.7,12.9,4.7,12.9,11.4c0.4,4.5-2.9,8.6-7.4,9c-0.6,0.1-1.2,0.1-1.7,0c-7.9,0-10.5-3.8-10.9-11.6
				h-18c0.4,17,10.5,25.4,28.9,25.4L961.3,90.7L961.3,90.7z M903.4,90.7c17.3,0,27.5-9.7,27.5-24.5c0-16.6-10-21.8-24.8-26
				c-9.5-2.8-12-5.1-12-10.6c-0.3-4,2.6-7.6,6.7-7.9c0.5,0,1.1,0,1.6,0c5.5,0,8.9,2.6,9.3,9.5h17.6C928.3,15.3,918.7,8,902.3,8
				S876,17.2,876,30.9c0,14.7,7.5,20.8,23.6,25.6c9.2,2.7,12.9,4.7,12.9,11.4c0.4,4.5-2.9,8.6-7.4,9c-0.6,0.1-1.2,0.1-1.7,0
				c-7.9,0-10.5-3.8-10.9-11.6h-18C874.9,82.3,885,90.7,903.4,90.7L903.4,90.7L903.4,90.7z M824.6,89.5h48V74.8h-29.4v-20h22.3V41.2
				h-22.1V23.7h27.8V9.2h-46.6L824.6,89.5L824.6,89.5z M782.5,45.4v-22h7c7.1,0,10.8,2.6,10.8,9.3v2.7c0,7.1-3.6,10-10.8,10
				C789.4,45.4,782.5,45.4,782.5,45.4z M763.8,89.5h18.7V57.9h5.6l14.2,31.6h19.7l-16.2-35c7.4-2.8,12.7-8.3,12.7-19.5V32
				c0-15.5-9.8-23.1-28.3-23.1h-26.3L763.8,89.5L763.8,89.5L763.8,89.5z M725.4,46.4V23.3h6.3c7,0,10.5,2.6,10.5,9.9v3.1
				c0,7-3.5,10.2-10.5,10.2L725.4,46.4L725.4,46.4L725.4,46.4z M706.7,89.5h18.7v-30h7.5c17.5,0,27.3-7.5,27.3-23.2v-3.4
				c0-15.7-9-23.8-27.9-23.8h-25.6L706.7,89.5L706.7,89.5L706.7,89.5z M638.9,89.5h19L670.8,60l13.1,29.5h21l-20.3-41.9l18-38.4
				h-18.9l-11.1,26.1L661.1,9.2h-20.9l19,39L638.9,89.5L638.9,89.5L638.9,89.5L638.9,89.5z M589.9,89.5h48V74.8h-29.3v-20h22.1V41.2
				h-22.1V23.7h27.7V9.2h-46.5L589.9,89.5L589.9,89.5L589.9,89.5z"/>
		</g>
	</g>
</g>
<g>
	<path d="M4.3,455c-1.6-1.6-2.5-3.6-2.5-6c0-2.4,0.8-4.4,2.5-6s3.6-2.5,6-2.5c2.3,0,4.2,0.8,5.8,2.5c1.6,1.6,2.4,3.6,2.4,6
		c0,2.4-0.8,4.4-2.4,6c-1.6,1.6-3.5,2.5-5.8,2.5C7.9,457.5,5.9,456.7,4.3,455z M16.3,469.7v75H3.8v-75H16.3z"/>
	<path d="M146.5,511.8H86.6c0.5,7.4,3,13.2,7.6,17.3c4.6,4.2,10.2,6.2,16.8,6.2c5.4,0,9.9-1.3,13.5-3.8c3.6-2.5,6.1-5.9,7.6-10.1
		h13.4c-2,7.2-6,13.1-12,17.6c-6,4.5-13.5,6.8-22.4,6.8c-7.1,0-13.5-1.6-19.1-4.8c-5.6-3.2-10-7.7-13.2-13.6
		c-3.2-5.9-4.8-12.7-4.8-20.5c0-7.8,1.5-14.5,4.7-20.4c3.1-5.8,7.5-10.3,13.1-13.5c5.6-3.1,12.1-4.7,19.4-4.7
		c7.1,0,13.4,1.6,18.9,4.7c5.5,3.1,9.7,7.4,12.7,12.8c3,5.4,4.4,11.6,4.4,18.4C146.9,506.6,146.8,509.2,146.5,511.8z M130.9,489.4
		c-2.1-3.4-4.9-6-8.5-7.8c-3.6-1.8-7.6-2.7-12-2.7c-6.3,0-11.7,2-16.1,6c-4.4,4-7,9.6-7.6,16.7h47.3
		C134.1,496.9,133,492.9,130.9,489.4z"/>
	<path d="M272.4,511.8h-59.9c0.5,7.4,3,13.2,7.6,17.3c4.6,4.2,10.2,6.2,16.8,6.2c5.4,0,9.9-1.3,13.5-3.8c3.6-2.5,6.1-5.9,7.6-10.1
		h13.4c-2,7.2-6,13.1-12,17.6c-6,4.5-13.5,6.8-22.4,6.8c-7.1,0-13.5-1.6-19.1-4.8c-5.6-3.2-10-7.7-13.2-13.6
		c-3.2-5.9-4.8-12.7-4.8-20.5c0-7.8,1.5-14.5,4.7-20.4c3.1-5.8,7.5-10.3,13.1-13.5c5.6-3.1,12.1-4.7,19.4-4.7
		c7.1,0,13.4,1.6,18.9,4.7c5.5,3.1,9.7,7.4,12.7,12.8c3,5.4,4.4,11.6,4.4,18.4C272.8,506.6,272.6,509.2,272.4,511.8z M256.8,489.4
		c-2.1-3.4-4.9-6-8.5-7.8c-3.6-1.8-7.6-2.7-12-2.7c-6.3,0-11.7,2-16.1,6c-4.4,4-7,9.6-7.6,16.7h47.3
		C259.9,496.9,258.9,492.9,256.8,489.4z"/>
	<path d="M330.2,486.7c3.1-5.8,7.4-10.3,12.8-13.5c5.4-3.2,11.5-4.8,18.3-4.8c5.8,0,11.3,1.3,16.3,4c5,2.7,8.8,6.2,11.5,10.6v-39.7
		h12.6v101.2h-12.6v-14.1c-2.5,4.5-6.1,8.1-10.9,11c-4.8,2.9-10.5,4.3-17,4.3c-6.7,0-12.7-1.6-18.1-4.9c-5.4-3.3-9.7-7.9-12.8-13.8
		c-3.1-5.9-4.7-12.7-4.7-20.2C325.6,499.2,327.1,492.5,330.2,486.7z M385.6,492.2c-2.3-4.2-5.4-7.4-9.2-9.6
		c-3.9-2.2-8.1-3.4-12.8-3.4s-8.9,1.1-12.7,3.3c-3.8,2.2-6.9,5.4-9.2,9.6c-2.3,4.2-3.4,9.1-3.4,14.8c0,5.7,1.1,10.7,3.4,15
		c2.3,4.2,5.3,7.5,9.2,9.7c3.8,2.2,8.1,3.4,12.7,3.4s8.9-1.1,12.8-3.4c3.9-2.2,7-5.5,9.2-9.7c2.3-4.2,3.4-9.2,3.4-14.8
		C389.1,501.4,387.9,496.4,385.6,492.2z"/>
	<path d="M530.2,469.7v75h-12.4v-11.1c-2.4,3.8-5.7,6.8-9.9,9s-8.9,3.2-14,3.2c-5.8,0-11.1-1.2-15.7-3.6c-4.7-2.4-8.3-6-11-10.9
		c-2.7-4.8-4-10.7-4-17.6v-43.9h12.3v42.3c0,7.4,1.9,13.1,5.6,17c3.7,4,8.8,6,15.3,6c6.7,0,11.9-2.1,15.7-6.2
		c3.8-4.1,5.7-10.1,5.7-17.9v-41.2H530.2z"/>
	<path d="M592.3,486.7c3.1-5.8,7.4-10.3,12.9-13.5c5.5-3.2,11.8-4.8,18.9-4.8c9.2,0,16.8,2.2,22.8,6.7c6,4.5,9.9,10.7,11.8,18.6
		h-13.4c-1.3-4.6-3.8-8.2-7.5-10.8c-3.7-2.6-8.3-4-13.7-4c-7.1,0-12.9,2.4-17.2,7.3c-4.4,4.9-6.6,11.8-6.6,20.7c0,9,2.2,16,6.6,20.9
		c4.4,4.9,10.1,7.4,17.2,7.4c5.5,0,10-1.3,13.7-3.8c3.6-2.6,6.2-6.2,7.5-10.9h13.4c-2,7.7-6,13.8-12,18.4c-6,4.6-13.5,6.9-22.6,6.9
		c-7.1,0-13.4-1.6-18.9-4.8c-5.5-3.2-9.8-7.7-12.9-13.5c-3.1-5.8-4.7-12.7-4.7-20.5C587.7,499.3,589.2,492.5,592.3,486.7z"/>
	<path d="M716.4,486.7c3.1-5.8,7.4-10.3,12.8-13.5c5.4-3.2,11.5-4.8,18.1-4.8c6.6,0,12.3,1.4,17.1,4.2c4.8,2.8,8.4,6.4,10.8,10.7
		v-13.7h12.6v75h-12.6v-14c-2.5,4.4-6.1,8-11,10.9c-4.9,2.9-10.6,4.3-17,4.3c-6.7,0-12.7-1.6-18.1-4.9c-5.4-3.3-9.6-7.9-12.7-13.8
		c-3.1-5.9-4.7-12.7-4.7-20.2C711.7,499.2,713.3,492.5,716.4,486.7z M771.8,492.2c-2.3-4.2-5.4-7.4-9.2-9.6
		c-3.9-2.2-8.1-3.4-12.8-3.4c-4.7,0-8.9,1.1-12.7,3.3c-3.8,2.2-6.9,5.4-9.2,9.6c-2.3,4.2-3.4,9.1-3.4,14.8c0,5.7,1.1,10.7,3.4,15
		c2.3,4.2,5.3,7.5,9.2,9.7c3.8,2.2,8.1,3.4,12.7,3.4c4.7,0,8.9-1.1,12.8-3.4c3.9-2.2,7-5.5,9.2-9.7c2.3-4.2,3.4-9.2,3.4-14.8
		C775.2,501.4,774.1,496.4,771.8,492.2z"/>
	<path d="M865.1,479.9v44.2c0,3.6,0.8,6.2,2.3,7.7c1.5,1.5,4.2,2.3,8.1,2.3h9.2v10.5h-11.2c-6.9,0-12.1-1.6-15.6-4.8
		c-3.5-3.2-5.2-8.4-5.2-15.7v-44.2h-9.7v-10.3h9.7v-18.9h12.4v18.9h19.6v10.3H865.1z"/>
	<path d="M941.1,455c-1.6-1.6-2.5-3.6-2.5-6c0-2.4,0.8-4.4,2.5-6s3.6-2.5,6-2.5c2.3,0,4.2,0.8,5.8,2.5c1.6,1.6,2.4,3.6,2.4,6
		c0,2.4-0.8,4.4-2.4,6c-1.6,1.6-3.5,2.5-5.8,2.5C944.8,457.5,942.8,456.7,941.1,455z M953.2,469.7v75h-12.4v-75H953.2z"/>
	<path d="M1029,541.1c-5.7-3.2-10.2-7.7-13.4-13.6c-3.2-5.9-4.9-12.7-4.9-20.5c0-7.7,1.7-14.4,5-20.3c3.3-5.9,7.9-10.4,13.6-13.5
		c5.7-3.1,12.2-4.7,19.3-4.7s13.5,1.6,19.3,4.7s10.3,7.6,13.6,13.5c3.3,5.8,5,12.6,5,20.4c0,7.8-1.7,14.6-5.1,20.5
		c-3.4,5.9-8,10.4-13.9,13.6c-5.8,3.2-12.3,4.8-19.4,4.8C1041.1,545.9,1034.7,544.3,1029,541.1z M1060.7,531.8
		c3.9-2.1,7.1-5.2,9.5-9.4c2.4-4.2,3.6-9.3,3.6-15.3s-1.2-11.1-3.6-15.3c-2.4-4.2-5.5-7.3-9.3-9.4s-8-3.1-12.4-3.1
		c-4.6,0-8.7,1-12.5,3.1c-3.8,2.1-6.8,5.2-9.1,9.4c-2.3,4.2-3.4,9.3-3.4,15.3c0,6.1,1.1,11.3,3.4,15.5c2.2,4.2,5.2,7.3,9,9.4
		c3.7,2.1,7.8,3.1,12.3,3.1C1052.6,534.9,1056.8,533.9,1060.7,531.8z"/>
	<path d="M1202.7,476.6c5.7,5.5,8.5,13.5,8.5,23.9v44.2h-12.3v-42.4c0-7.5-1.9-13.2-5.6-17.2c-3.7-4-8.8-6-15.3-6
		c-6.6,0-11.8,2.1-15.7,6.2c-3.9,4.1-5.8,10.1-5.8,17.9v41.4H1144v-75h12.4v10.7c2.5-3.8,5.8-6.8,10.1-8.9c4.2-2.1,8.9-3.1,14-3.1
		C1189.7,468.3,1197,471.1,1202.7,476.6z"/>
	<path d="M1270.5,543c-1.6-1.6-2.5-3.6-2.5-6c0-2.4,0.8-4.4,2.5-6s3.6-2.5,6-2.5c2.3,0,4.2,0.8,5.8,2.5c1.6,1.6,2.4,3.6,2.4,6
		c0,2.4-0.8,4.4-2.4,6c-1.6,1.6-3.5,2.5-5.8,2.5C1274.2,545.5,1272.2,544.6,1270.5,543z"/>
	<path d="M1342.8,455c-1.6-1.6-2.5-3.6-2.5-6c0-2.4,0.8-4.4,2.5-6s3.6-2.5,6-2.5c2.3,0,4.2,0.8,5.8,2.5c1.6,1.6,2.4,3.6,2.4,6
		c0,2.4-0.8,4.4-2.4,6c-1.6,1.6-3.5,2.5-5.8,2.5C1346.4,457.5,1344.4,456.7,1342.8,455z M1354.8,469.7v75h-12.4v-75H1354.8z"/>
	<path d="M1475.7,476.6c5.7,5.5,8.5,13.5,8.5,23.9v44.2h-12.3v-42.4c0-7.5-1.9-13.2-5.6-17.2c-3.7-4-8.8-6-15.3-6
		c-6.6,0-11.8,2.1-15.7,6.2c-3.9,4.1-5.8,10.1-5.8,17.9v41.4H1417v-75h12.4v10.7c2.5-3.8,5.8-6.8,10.1-8.9c4.2-2.1,8.9-3.1,14-3.1
		C1462.7,468.3,1470.1,471.1,1475.7,476.6z"/>
</g>
</svg>
