<?xml version="1.0" encoding="UTF-8"?>
<svg width="40px" height="40px" viewBox="0 0 40 40" version="1.1" xmlns="http://www.w3.org/2000/svg" xmlns:xlink="http://www.w3.org/1999/xlink">
    <title>Group 36</title>
    <defs>
        <polygon id="path-1" points="0 0 13 0 13 23 0 23"></polygon>
    </defs>
    <g id="Page-1" stroke="none" stroke-width="1" fill="none" fill-rule="evenodd">
        <g id="Jansatta-v4" transform="translate(-290.000000, -3086.000000)">
            <g id="Group-36" transform="translate(290.000000, 3086.000000)">
                <circle id="Oval" fill="#000000" opacity="0.600000024" cx="20" cy="20" r="20"></circle>
                <g id="Group-8" transform="translate(10.000000, 9.000000)">
                    <g id="Group-3">
                        <mask id="mask-2" fill="white">
                            <use xlink:href="#path-1"></use>
                        </mask>
                        <g id="Clip-2"></g>
                        <path d="M11.9578228,23 L1.04217719,23 C0.466491999,23 0,22.4850389 0,21.8495392 L0,1.15082939 C0,0.515329754 0.466491999,0 1.04217719,0 L11.9578228,0 C12.533508,0 13,0.515329754 13,1.15082939 L13,21.8495392 C13,22.4850389 12.533508,23 11.9578228,23" id="Fill-1" fill="#FFFFFF" mask="url(#mask-2)"></path>
                    </g>
                    <path d="M16.0378493,2 L14,2 L14,21 L16.0378493,21 C16.5691862,21 17,20.5391124 17,19.9706845 L17,3.02931553 C17,2.46088755 16.5691862,2 16.0378493,2" id="Fill-4" fill="#FFFFFF"></path>
                    <path d="M20.0379939,3 L18,3 L18,19 L20.0379939,19 C20.5693562,19 21,18.6120239 21,18.132935 L21,3.86669156 C21,3.3879761 20.5693562,3 20.0379939,3" id="Fill-6" fill="#FFFFFF"></path>
                </g>
            </g>
        </g>
    </g>
</svg>